# xmcd
#
# Track frame offsets: 
#        150
#        15448
#        34205
#        52007
#        66453
#        77313
#        96889
#        112105
#        124058
#        136482
#        151107
#        167162
#        182566
#        194789
#        207322
#
# Disc length: 2942 seconds
#
# Revision: 2
# Processed by: cddbd v1.5.2PL0 Copyright (c) Steve Scherf et al.
# Submitted via: ExactAudioCopy v0.99pb5
#
DISCID=d20b7c0f
DTITLE=Julian Dawson with Gene Parsons - Hillbilly Zen
DYEAR=2002
DGENRE=Americana
TTITLE0=Freedom Of The Highway
TTITLE1=The Wall That Surrounds You
TTITLE2=Shadow On The Moon
TTITLE3=Don't Just Do Something (Sit There Son)
TTITLE4=Hillbillies On Pills
TTITLE5=To Hold You Again
TTITLE6=It's Not Really Raining
TTITLE7=Banjo Song
TTITLE8=Loser's Blues
TTITLE9=Baby Please
TTITLE10=A.M.N.W.A.W.S.M.
TTITLE11=Harp To Heart
TTITLE12=Let Me Down Slow
TTITLE13=Blue Fingers
TTITLE14=What Kind Of Change
EXTD=
EXTT0=
EXTT1=
EXTT2=
EXTT3=
EXTT4=
EXTT5=
EXTT6=
EXTT7=
EXTT8=
EXTT9=
EXTT10=
EXTT11=
EXTT12=
EXTT13=
EXTT14=
PLAYORDER=
